<?xml version="1.0" standalone="no"?>
<!DOCTYPE svg PUBLIC "-//W3C//DTD SVG 20010904//EN"
 "http://www.w3.org/TR/2001/REC-SVG-20010904/DTD/svg10.dtd">
<svg version="1.0" xmlns="http://www.w3.org/2000/svg"
 width="192.000000pt" height="192.000000pt" viewBox="0 0 192.000000 192.000000"
 preserveAspectRatio="xMidYMid meet">
<metadata>
Created by potrace 1.14, written by Peter Selinger 2001-2017
</metadata>
<g transform="translate(0.000000,192.000000) scale(0.100000,-0.100000)"
fill="#000000" stroke="none">
<path d="M563 1863 c-18 -2 -33 -8 -33 -13 0 -5 -17 -14 -37 -21 -21 -6 -49
-22 -62 -35 -13 -13 -27 -24 -32 -24 -11 0 -59 -49 -59 -59 0 -5 -11 -16 -25
-25 -14 -9 -25 -23 -25 -31 0 -8 -4 -15 -9 -15 -5 0 -15 -17 -22 -37 -6 -21
-18 -44 -26 -51 -7 -7 -13 -20 -13 -28 0 -8 -4 -14 -9 -14 -5 0 -15 -26 -22
-57 -7 -32 -17 -61 -21 -64 -5 -3 -14 -56 -20 -117 -7 -62 -16 -112 -20 -112
-4 0 -8 -94 -8 -210 0 -116 4 -210 8 -210 4 0 13 -53 20 -117 6 -64 15 -119
20 -122 4 -3 14 -33 21 -65 7 -33 20 -66 27 -74 8 -7 14 -20 14 -28 0 -8 5
-14 10 -14 6 0 10 -7 10 -15 0 -16 17 -50 35 -71 69 -81 101 -114 112 -114 7
0 13 -4 13 -9 0 -12 57 -41 81 -41 9 0 19 -6 22 -12 5 -18 269 -18 275 0 2 7
13 12 25 12 11 0 36 6 55 12 l34 13 -6 65 c-4 36 -11 67 -16 68 -6 2 -10 20
-11 40 -1 36 -16 99 -18 75 -2 -18 -101 -36 -169 -31 -55 4 -63 7 -106 51 -26
25 -52 60 -57 77 -6 16 -15 30 -20 30 -4 0 -11 16 -15 35 -3 19 -10 35 -14 35
-4 0 -13 35 -20 77 -7 43 -18 81 -24 85 -15 10 -15 486 0 496 6 4 16 41 23 82
6 41 16 77 21 78 6 2 10 12 10 22 0 10 6 25 13 32 8 7 17 25 20 40 4 15 15 35
26 45 10 10 21 26 24 36 4 9 13 17 21 17 8 0 19 8 25 18 8 14 25 17 107 17 69
0 99 -4 101 -12 4 -10 8 -9 19 2 11 11 15 45 17 132 l2 117 -30 10 c-16 6 -33
15 -37 20 -7 11 -171 17 -225 9z"/>
<path d="M1009 1828 c0 -2 -2 -387 -3 -855 l-2 -853 147 0 147 0 4 396 c2 251
7 398 14 402 5 4 15 41 22 82 7 41 17 77 22 78 6 2 10 9 10 16 0 26 62 66 103
66 85 0 107 -67 107 -330 0 -208 -21 -644 -32 -648 -4 -2 -8 -26 -8 -54 l0
-50 139 4 c77 2 142 6 146 9 3 4 9 57 12 118 3 61 9 111 13 111 4 0 10 73 14
162 5 106 12 166 19 170 9 6 9 8 0 8 -8 0 -13 15 -13 40 0 22 5 40 10 40 6 0
10 37 10 90 0 50 -4 90 -8 90 -5 0 -12 55 -15 122 -3 67 -10 124 -15 127 -5 3
-15 34 -22 69 -7 34 -16 62 -21 62 -4 0 -10 9 -14 20 -11 35 -72 88 -109 96
-20 3 -36 10 -36 15 0 11 -77 12 -82 2 -1 -5 -34 -16 -73 -26 -38 -10 -71 -22
-73 -27 -2 -6 -18 -17 -36 -25 -18 -9 -39 -27 -46 -40 -7 -14 -19 -25 -27 -25
-10 0 -12 29 -6 153 3 83 9 154 13 157 4 3 10 56 13 118 l6 112 -165 0 c-90 0
-164 -1 -165 -2z"/>
</g>
</svg>
